<svg width="32" height="32" viewBox="0 0 32 32" fill="none" xmlns="http://www.w3.org/2000/svg">
<rect width="32" height="32" rx="5.33333" fill="url(#paint0_linear_62_4096)"/>
<path d="M16.5868 28.3328C14.2623 28.3328 12.3293 27.9918 10.7875 27.3099C9.26953 26.6279 8.14289 25.6991 7.40761 24.5233C6.67233 23.3241 6.30469 21.9837 6.30469 20.5022V20.2906H9.56413C9.56413 21.3958 9.56413 24.0977 9.56413 24.0977H22.7774C22.7774 24.0977 22.8404 19.9976 22.7774 19.6228C22.7143 19.248 20.1217 18.0175 18.3665 17.6647L13.3847 16.7281C12.1039 16.4694 10.9298 16.1049 9.8625 15.6346C8.81888 15.1643 7.97686 14.5176 7.33645 13.6946C6.71977 12.8481 6.41142 11.7664 6.41142 10.4495C6.41142 9.65001 6.58931 8.87401 6.94509 8.12153C7.32459 7.34553 7.89384 6.65184 8.65284 6.04044C9.41184 5.40553 10.3962 4.91172 11.6058 4.55899C12.8392 4.18275 14.3098 3.99463 16.0175 3.99463C18.2708 3.99463 20.109 4.34736 21.5321 5.05281C22.9553 5.75826 24.0107 6.71062 24.6986 7.9099C25.3864 9.08565 25.7303 10.3907 25.7303 11.8252V12.0368H22.7143V8.62112L9.56413 8.64916C9.56413 8.64916 9.56413 12.0419 9.56413 12.4064C9.56413 12.7709 10.4436 13.3536 11.1789 13.6593C11.9379 13.965 12.8985 14.2472 14.0607 14.5059L19.0772 15.4935C20.5004 15.7522 21.7337 16.1402 22.7774 16.6575C23.821 17.1749 24.6274 17.8568 25.1967 18.7033C25.7896 19.5264 26.0861 20.5493 26.0861 21.7721C26.0861 22.8773 25.7541 23.9354 25.0899 24.9466C24.4258 25.9577 23.3941 26.7808 21.9946 27.4157C20.5952 28.0271 18.7926 28.3328 16.5868 28.3328Z" fill="white"/>
<defs>
<linearGradient id="paint0_linear_62_4096" x1="0" y1="0" x2="32" y2="32" gradientUnits="userSpaceOnUse">
<stop stop-color="#FF2B6B"/>
<stop offset="1" stop-color="#FF004D"/>
</linearGradient>
</defs>
</svg>
