<svg width="114" height="36" viewBox="0 0 114 36" fill="none" xmlns="http://www.w3.org/2000/svg">
<path d="M18.4564 36C8.39345 36 0 27.8364 0 18C0 8.16357 8.37058 0 18.4336 0C28.5194 0 36.9358 8.16357 36.9358 18C36.9358 27.8364 28.5423 36 18.4564 36ZM18.4564 32.6097C26.7813 32.6097 33.4366 26.119 33.4366 18C33.4366 9.88104 26.7584 3.39033 18.4336 3.39033C10.1316 3.39033 3.52205 9.88104 3.52205 18C3.52205 26.119 10.1545 32.6097 18.4564 32.6097ZM19.417 26.4089C18.4107 26.4089 17.8161 25.7398 17.8161 24.6022V13.026H17.6789L15.6434 14.342C15.1631 14.6543 14.9344 14.6989 14.6371 14.6989C13.9967 14.6989 13.4936 14.1413 13.4936 13.539C13.4936 13.0483 13.6765 12.7361 14.1111 12.4461L17.1986 10.3717C18.0676 9.79182 18.5937 9.59108 19.3484 9.59108C20.4462 9.59108 21.0637 10.2379 21.0637 11.3978V24.6022C21.0637 25.7398 20.469 26.4089 19.417 26.4089Z" fill="black"/>
<path d="M56.9886 36C46.9256 36 38.5321 27.8364 38.5321 18C38.5321 8.16357 46.9027 0 56.9657 0C67.0516 0 75.4679 8.16357 75.4679 18C75.4679 27.8364 67.0744 36 56.9886 36ZM56.9886 32.6097C65.3134 32.6097 71.9687 26.119 71.9687 18C71.9687 9.88104 65.2905 3.39033 56.9657 3.39033C48.6637 3.39033 42.0542 9.88104 42.0542 18C42.0542 26.119 48.6866 32.6097 56.9886 32.6097ZM52.8719 25.9628C51.9799 25.9628 51.4539 25.4721 51.4539 24.6915C51.4539 24.29 51.6369 23.8885 51.9799 23.5316L57.6061 17.71C58.5895 16.684 59.8016 15.6134 59.8016 14.342C59.8016 13.0037 58.7267 12.0892 57.1487 12.0892C55.4791 12.0892 54.6787 13.1822 54.1298 14.0743C53.7638 14.6097 53.4208 15.0558 52.7118 15.0558C51.9342 15.0558 51.4082 14.5651 51.4082 13.8067C51.4082 13.5613 51.431 13.316 51.4997 13.0483C52.1629 11.1078 54.4271 9.59108 56.9886 9.59108C60.4191 9.59108 62.6604 11.3978 62.6604 14.0967C62.6604 16.1487 61.4712 17.5539 59.9389 19.1375L55.9365 23.2639V23.3978H62.1115C62.8891 23.3978 63.4609 23.8662 63.4609 24.6691C63.4609 25.4721 62.8891 25.9628 62.1115 25.9628H52.8719Z" fill="black"/>
<path d="M95.5207 36C85.4577 36 77.0642 27.8364 77.0642 18C77.0642 8.16357 85.4348 0 95.4978 0C105.584 0 114 8.16357 114 18C114 27.8364 105.607 36 95.5207 36ZM95.5207 32.6097C103.846 32.6097 110.501 26.119 110.501 18C110.501 9.88104 103.823 3.39033 95.4978 3.39033C87.1958 3.39033 80.5863 9.88104 80.5863 18C80.5863 26.119 87.2187 32.6097 95.5207 32.6097ZM95.5664 26.4089C92.5247 26.4089 90.1233 25.0037 89.5972 22.9517C89.5286 22.684 89.5058 22.5279 89.5058 22.2379C89.5058 21.4796 90.0775 20.8996 90.9009 20.8996C91.587 20.8996 91.9986 21.2119 92.296 21.9033C92.7305 23.0186 93.6911 23.9108 95.6122 23.9108C97.6248 23.9108 98.9512 22.9517 98.9512 21.4796C98.9512 19.9628 97.6476 18.9591 95.6808 18.9591H94.5373C93.8283 18.9591 93.2794 18.4461 93.2794 17.7546C93.2794 17.0409 93.8283 16.5502 94.5373 16.5502H95.5893C97.236 16.5502 98.4024 15.5688 98.4024 14.2082C98.4024 12.8699 97.3961 12.0892 95.6808 12.0892C94.0798 12.0892 93.0507 12.8476 92.6161 14.0967C92.3646 14.7658 91.9529 15.1004 91.2439 15.1004C90.4206 15.1004 89.8488 14.5651 89.8488 13.8067C89.8488 13.5167 89.8717 13.316 89.9403 13.0483C90.4663 10.9294 92.7076 9.59108 95.7494 9.59108C99.0656 9.59108 101.398 11.3755 101.398 13.8513C101.398 15.6803 99.9804 17.3085 98.1965 17.5539V17.6877C100.392 17.8885 101.97 19.539 101.97 21.6134C101.97 24.4015 99.5459 26.4089 95.5664 26.4089Z" fill="black"/>
</svg>
